<svg xmlns="http://www.w3.org/2000/svg" version="1.1" xmlns:xlink="http://www.w3.org/1999/xlink" xmlns:svgjs="http://svgjs.dev/svgjs" width="90" height="90"><svg id="SvgjsSvg1053" x="0px" y="0px" viewBox="0 0 90.000004 90.000004" xml:space="preserve" version="1.1" sodipodi:docname="Logo.svg" width="90" height="90" inkscape:version="1.2.2 (b0a8486, 2022-12-01)" xmlns:inkscape="http://www.inkscape.org/namespaces/inkscape" xmlns:sodipodi="http://sodipodi.sourceforge.net/DTD/sodipodi-0.dtd" xmlns="http://www.w3.org/2000/svg" xmlns:svg="http://www.w3.org/2000/svg"><defs id="SvgjsDefs1052"></defs><sodipodi:namedview id="SvgjsSodipodi:namedview1051" pagecolor="#ffffff" bordercolor="#000000" borderopacity="0.25" inkscape:showpageshadow="2" inkscape:pageopacity="0.0" inkscape:pagecheckerboard="0" inkscape:deskcolor="#d1d1d1" showgrid="false" inkscape:zoom="1" inkscape:cx="59.5" inkscape:cy="51.5" inkscape:window-width="1390" inkscape:window-height="1027" inkscape:window-x="75" inkscape:window-y="25" inkscape:window-maximized="0" inkscape:current-layer="Lager_1"></sodipodi:namedview>
<style type="text/css" id="SvgjsStyle1050">
	.st0{fill:#282727;}
	.st1{fill:#FFFFFF;}
</style>
<circle transform="rotate(-80.101551)" class="st0" cx="-36.594521" cy="52.065739" id="SvgjsCircle1049" style="stroke-width:0.433944" r="45"></circle>
<g id="SvgjsG1048" transform="matrix(0.4446212,0,0,0.4446212,-1.1041988,-1.1250344)">
	<g id="SvgjsG1047">
		<path class="st1" d="m 32.9,70.3 c 0,-1.8 0.6,-3.4 1.9,-4.7 1.3,-1.3 2.9,-1.9 4.7,-1.9 1.8,0 3.4,0.6 4.7,1.9 1.3,1.3 1.9,2.9 1.9,4.7 0,1.8 -0.6,3.4 -1.9,4.7 -1.3,1.3 -2.9,1.9 -4.7,1.9 -1.8,0 -3.4,-0.6 -4.7,-1.9 -1.3,-1.3 -1.9,-2.8 -1.9,-4.7 z M 33.8,82 h 11.4 v 37 H 33.8 Z" id="SvgjsPath1046"></path>
		<path class="st1" d="m 53.4,82 h 11 v 5 h 0.2 c 0.4,-0.7 0.9,-1.4 1.5,-2.1 0.7,-0.7 1.4,-1.3 2.4,-1.9 0.9,-0.6 2,-1 3.1,-1.4 1.2,-0.4 2.4,-0.5 3.8,-0.5 2.6,0 4.9,0.5 6.9,1.6 2,1.1 3.5,2.7 4.5,5 1.3,-2.4 2.9,-4.1 4.8,-5.1 1.9,-1 4.2,-1.5 6.9,-1.5 2.5,0 4.6,0.4 6.3,1.3 1.7,0.8 3,2 4,3.4 1,1.4 1.7,3.2 2.1,5.1 0.4,2 0.6,4.1 0.6,6.3 V 119 H 100.1 V 97.5 c 0,-1.7 -0.4,-3.2 -1.1,-4.5 -0.7,-1.2 -2,-1.9 -3.9,-1.9 -1.3,0 -2.4,0.2 -3.3,0.6 -0.9,0.4 -1.6,1 -2.1,1.8 -0.5,0.8 -0.9,1.7 -1.1,2.7 -0.2,1 -0.3,2.1 -0.3,3.2 V 119 H 76.8 V 99.4 c 0,-0.7 0,-1.5 -0.1,-2.4 -0.1,-1 -0.2,-1.9 -0.5,-2.7 -0.3,-0.9 -0.8,-1.6 -1.5,-2.2 -0.7,-0.6 -1.7,-0.9 -3,-0.9 -1.5,0 -2.7,0.3 -3.6,0.8 -0.9,0.5 -1.6,1.2 -2.1,2.1 -0.5,0.9 -0.8,1.9 -1,3 -0.2,1.1 -0.2,2.3 -0.2,3.5 V 119 H 53.4 Z" id="SvgjsPath1045"></path>
		<path class="st1" d="m 115.8,82 h 12.3 l 9.4,25.1 h 0.2 L 146.4,82 h 11.5 l -14.6,37 h -12.1 z" id="SvgjsPath1044"></path>
		<path class="st1" d="m 161.3,70.3 c 0,-1.8 0.6,-3.4 1.9,-4.7 1.3,-1.3 2.9,-1.9 4.7,-1.9 1.8,0 3.4,0.6 4.7,1.9 1.3,1.3 1.9,2.9 1.9,4.7 0,1.8 -0.6,3.4 -1.9,4.7 -1.3,1.3 -2.9,1.9 -4.7,1.9 -1.8,0 -3.4,-0.6 -4.7,-1.9 -1.2,-1.3 -1.9,-2.8 -1.9,-4.7 z m 0.9,11.7 h 11.4 v 37 h -11.4 z" id="SvgjsPath1043"></path>
	</g>
	<g id="SvgjsG1042">
		<path class="st1" d="m 36.2,128 c 0,0.2 0,0.4 -0.1,0.6 -0.1,0.2 -0.2,0.4 -0.4,0.5 -0.1,0.1 -0.3,0.3 -0.5,0.3 -0.2,0.1 -0.4,0.1 -0.6,0.1 -0.5,0 -0.9,-0.2 -1.2,-0.5 -0.3,-0.3 -0.5,-0.7 -0.5,-1.1 0,-0.2 0,-0.4 0.1,-0.6 0.1,-0.2 0.2,-0.4 0.4,-0.5 0.2,-0.1 0.3,-0.3 0.5,-0.3 0.2,-0.1 0.4,-0.1 0.7,-0.1 0.2,0 0.4,0 0.6,0.1 0.2,0.1 0.4,0.2 0.5,0.3 0.1,0.1 0.3,0.3 0.4,0.5 0.1,0.2 0.1,0.5 0.1,0.7 z m -3.1,11.5 v -8.8 H 36 v 8.8 z" id="SvgjsPath1041"></path>
		<path class="st1" d="m 49.3,139.5 v -4.8 c 0,-0.2 0,-0.5 -0.1,-0.7 0,-0.2 -0.1,-0.4 -0.2,-0.6 -0.1,-0.2 -0.2,-0.3 -0.4,-0.4 -0.2,-0.1 -0.4,-0.1 -0.6,-0.1 -0.2,0 -0.5,0.1 -0.6,0.2 -0.2,0.1 -0.3,0.2 -0.5,0.4 -0.1,0.2 -0.2,0.4 -0.3,0.6 -0.1,0.2 -0.1,0.5 -0.1,0.7 v 4.7 h -2.9 v -5 c 0,-0.5 -0.1,-0.9 -0.3,-1.2 -0.2,-0.3 -0.5,-0.4 -1,-0.4 -0.5,0 -0.8,0.2 -1.1,0.5 -0.3,0.3 -0.4,0.8 -0.4,1.3 v 4.7 h -2.9 v -8.8 h 2.8 v 1.2 0 c 0.1,-0.2 0.2,-0.4 0.4,-0.5 0.2,-0.2 0.3,-0.3 0.6,-0.5 0.2,-0.1 0.5,-0.2 0.7,-0.3 0.2,-0.1 0.6,-0.1 0.9,-0.1 0.6,0 1.2,0.1 1.6,0.4 0.4,0.3 0.8,0.6 1,1.1 0.3,-0.5 0.7,-0.8 1.1,-1.1 0.5,-0.3 1,-0.4 1.7,-0.4 0.6,0 1.1,0.1 1.5,0.3 0.4,0.2 0.7,0.5 1,0.8 0.2,0.3 0.4,0.7 0.5,1.2 0.1,0.4 0.2,0.8 0.2,1.3 v 5.4 h -2.6 z" id="SvgjsPath1040"></path>
		<path class="st1" d="m 64.1,135.1 c 0,0.6 -0.1,1.2 -0.3,1.8 -0.2,0.6 -0.5,1.1 -0.8,1.5 -0.4,0.4 -0.8,0.8 -1.3,1 -0.5,0.3 -1.1,0.4 -1.8,0.4 -0.5,0 -1,-0.1 -1.5,-0.3 -0.5,-0.2 -0.9,-0.5 -1.1,-0.9 v 0 5.2 h -2.9 v -13 h 2.7 v 1.1 h 0.1 c 0.3,-0.4 0.6,-0.7 1.1,-0.9 0.5,-0.3 1,-0.4 1.7,-0.4 0.6,0 1.2,0.1 1.7,0.4 0.5,0.2 1,0.6 1.3,1 0.4,0.4 0.6,0.9 0.8,1.5 0.2,0.4 0.3,1 0.3,1.6 z m -2.8,0 c 0,-0.3 0,-0.6 -0.1,-0.8 -0.1,-0.3 -0.2,-0.5 -0.4,-0.7 -0.2,-0.2 -0.4,-0.4 -0.6,-0.5 -0.3,-0.1 -0.6,-0.2 -0.9,-0.2 -0.3,0 -0.6,0.1 -0.9,0.2 -0.3,0.1 -0.5,0.3 -0.7,0.5 -0.2,0.2 -0.3,0.5 -0.4,0.7 -0.1,0.3 -0.1,0.5 -0.1,0.8 0,0.3 0,0.6 0.1,0.8 0.1,0.3 0.2,0.5 0.4,0.7 0.2,0.2 0.4,0.4 0.7,0.5 0.3,0.1 0.6,0.2 0.9,0.2 0.3,0 0.6,-0.1 0.9,-0.2 0.3,-0.1 0.5,-0.3 0.6,-0.5 0.2,-0.2 0.3,-0.5 0.4,-0.7 0,-0.2 0.1,-0.5 0.1,-0.8 z" id="SvgjsPath1039"></path>
		<path class="st1" d="m 71.5,133.1 c -0.1,0 -0.3,-0.1 -0.4,-0.1 -0.1,0 -0.2,0 -0.4,0 -0.4,0 -0.7,0.1 -1,0.2 -0.3,0.1 -0.5,0.3 -0.6,0.5 -0.2,0.2 -0.3,0.4 -0.3,0.6 -0.1,0.2 -0.1,0.4 -0.1,0.6 v 4.5 h -2.9 v -8.7 h 2.8 v 1.3 0 c 0.2,-0.4 0.5,-0.8 0.9,-1.1 0.4,-0.3 0.9,-0.4 1.4,-0.4 0.1,0 0.2,0 0.3,0 0.1,0 0.2,0 0.3,0.1 z" id="SvgjsPath1038"></path>
		<path class="st1" d="m 81.6,135.1 c 0,0.7 -0.1,1.4 -0.4,1.9 -0.3,0.6 -0.6,1.1 -1.1,1.5 -0.4,0.4 -1,0.7 -1.5,0.9 -0.6,0.2 -1.2,0.3 -1.9,0.3 -0.7,0 -1.3,-0.1 -1.9,-0.3 -0.6,-0.2 -1.1,-0.5 -1.5,-0.9 -0.4,-0.4 -0.8,-0.9 -1,-1.5 -0.3,-0.6 -0.4,-1.2 -0.4,-1.9 0,-0.7 0.1,-1.4 0.4,-1.9 0.3,-0.6 0.6,-1.1 1,-1.5 0.4,-0.4 1,-0.7 1.5,-0.9 0.6,-0.2 1.2,-0.3 1.9,-0.3 0.7,0 1.3,0.1 1.9,0.3 0.6,0.2 1.1,0.5 1.5,0.9 0.4,0.4 0.8,0.9 1.1,1.5 0.3,0.6 0.4,1.2 0.4,1.9 z m -2.8,0 c 0,-0.3 0,-0.6 -0.1,-0.8 -0.1,-0.3 -0.2,-0.5 -0.4,-0.7 -0.2,-0.2 -0.4,-0.4 -0.7,-0.5 -0.3,-0.1 -0.6,-0.2 -0.9,-0.2 -0.3,0 -0.6,0.1 -0.9,0.2 -0.3,0.1 -0.5,0.3 -0.6,0.5 -0.2,0.2 -0.3,0.4 -0.4,0.7 -0.1,0.3 -0.1,0.5 -0.1,0.8 0,0.3 0,0.6 0.1,0.8 0.1,0.3 0.2,0.5 0.4,0.7 0.2,0.2 0.4,0.4 0.7,0.5 0.3,0.1 0.6,0.2 0.9,0.2 0.3,0 0.6,-0.1 0.9,-0.2 0.3,-0.1 0.5,-0.3 0.7,-0.5 0.2,-0.2 0.3,-0.5 0.4,-0.7 0,-0.2 0,-0.5 0,-0.8 z" id="SvgjsPath1037"></path>
		<path class="st1" d="m 88.8,139.5 h -3.1 l -3.4,-8.8 h 3.2 l 1.8,5.7 h 0.1 l 1.8,-5.7 h 3.1 z" id="SvgjsPath1036"></path>
		<path class="st1" d="m 96.4,128 c 0,0.2 0,0.4 -0.1,0.6 -0.1,0.2 -0.2,0.4 -0.4,0.5 -0.1,0.1 -0.3,0.3 -0.5,0.3 -0.2,0.1 -0.4,0.1 -0.6,0.1 -0.5,0 -0.9,-0.2 -1.2,-0.5 -0.3,-0.3 -0.5,-0.7 -0.5,-1.1 0,-0.2 0,-0.4 0.1,-0.6 0.1,-0.2 0.2,-0.4 0.4,-0.5 0.2,-0.1 0.3,-0.3 0.5,-0.3 0.2,-0.1 0.4,-0.1 0.7,-0.1 0.2,0 0.4,0 0.6,0.1 0.2,0.1 0.4,0.2 0.5,0.3 0.1,0.1 0.3,0.3 0.4,0.5 0,0.2 0.1,0.5 0.1,0.7 z m -3.1,11.5 v -8.8 h 2.9 v 8.8 z" id="SvgjsPath1035"></path>
		<path class="st1" d="m 104.1,139.5 v -4.8 c 0,-0.2 0,-0.5 -0.1,-0.7 0,-0.2 -0.1,-0.4 -0.2,-0.6 -0.1,-0.2 -0.2,-0.3 -0.4,-0.4 -0.2,-0.1 -0.4,-0.1 -0.6,-0.1 -0.3,0 -0.5,0.1 -0.7,0.1 -0.2,0.1 -0.4,0.2 -0.5,0.4 -0.1,0.2 -0.2,0.4 -0.3,0.6 -0.1,0.2 -0.1,0.5 -0.1,0.7 v 4.7 h -2.9 v -8.8 h 2.8 v 1.2 0 c 0.1,-0.2 0.2,-0.4 0.4,-0.6 0.2,-0.2 0.4,-0.3 0.6,-0.5 0.2,-0.2 0.5,-0.2 0.7,-0.3 0.3,-0.1 0.6,-0.1 0.9,-0.1 0.6,0 1.1,0.1 1.5,0.3 0.4,0.2 0.7,0.5 1,0.8 0.3,0.3 0.4,0.7 0.5,1.2 0.1,0.4 0.2,0.9 0.2,1.3 v 5.4 h -2.8 z" id="SvgjsPath1034"></path>
		<path class="st1" d="m 118.4,138.7 c 0,0.9 -0.1,1.6 -0.4,2.2 -0.2,0.6 -0.6,1.2 -1,1.6 -0.4,0.4 -1,0.7 -1.6,0.9 -0.6,0.2 -1.3,0.3 -2.1,0.3 -0.8,0 -1.6,-0.1 -2.4,-0.4 -0.8,-0.2 -1.5,-0.6 -2.1,-1 l 1.4,-2.1 c 0.4,0.4 0.9,0.7 1.4,0.8 0.5,0.2 1,0.3 1.5,0.3 0.8,0 1.5,-0.2 1.9,-0.7 0.4,-0.4 0.6,-1 0.6,-1.8 v -0.5 h -0.1 c -0.3,0.4 -0.6,0.6 -1.1,0.8 -0.5,0.2 -1,0.3 -1.6,0.3 -0.7,0 -1.3,-0.1 -1.8,-0.4 -0.5,-0.2 -1,-0.6 -1.3,-1 -0.4,-0.4 -0.6,-0.9 -0.8,-1.4 -0.2,-0.5 -0.3,-1.1 -0.3,-1.7 0,-0.6 0.1,-1.2 0.3,-1.7 0.2,-0.6 0.5,-1 0.8,-1.5 0.4,-0.4 0.8,-0.8 1.3,-1 0.5,-0.3 1.1,-0.4 1.8,-0.4 0.6,0 1.1,0.1 1.6,0.3 0.5,0.2 0.9,0.6 1.2,1 v 0 -1.1 h 2.7 v 8.2 z m -2.8,-3.6 c 0,-0.3 0,-0.6 -0.1,-0.8 -0.1,-0.3 -0.2,-0.5 -0.4,-0.7 -0.2,-0.2 -0.4,-0.4 -0.7,-0.5 -0.3,-0.1 -0.6,-0.2 -0.9,-0.2 -0.3,0 -0.6,0.1 -0.9,0.2 -0.3,0.1 -0.5,0.3 -0.6,0.5 -0.2,0.2 -0.3,0.4 -0.4,0.7 -0.1,0.3 -0.1,0.6 -0.1,0.9 0,0.3 0,0.6 0.1,0.8 0.1,0.3 0.2,0.5 0.4,0.7 0.2,0.2 0.4,0.4 0.6,0.5 0.3,0.1 0.5,0.2 0.9,0.2 0.4,0 0.6,-0.1 0.9,-0.2 0.3,-0.1 0.5,-0.3 0.7,-0.5 0.2,-0.2 0.3,-0.4 0.4,-0.7 0.1,-0.3 0.1,-0.6 0.1,-0.9 z" id="SvgjsPath1033"></path>
		<path class="st1" d="m 132,139.5 h -3.1 l -3.4,-8.8 h 3.2 l 1.8,5.7 h 0.1 l 1.8,-5.7 h 3.1 z" id="SvgjsPath1032"></path>
		<path class="st1" d="m 139.6,128 c 0,0.2 0,0.4 -0.1,0.6 -0.1,0.2 -0.2,0.4 -0.4,0.5 -0.1,0.1 -0.3,0.3 -0.5,0.3 -0.2,0.1 -0.4,0.1 -0.6,0.1 -0.5,0 -0.9,-0.2 -1.2,-0.5 -0.3,-0.3 -0.5,-0.7 -0.5,-1.1 0,-0.2 0,-0.4 0.1,-0.6 0.1,-0.2 0.2,-0.4 0.4,-0.5 0.2,-0.1 0.3,-0.3 0.5,-0.3 0.2,-0.1 0.4,-0.1 0.7,-0.1 0.2,0 0.4,0 0.6,0.1 0.2,0.1 0.4,0.2 0.5,0.3 0.1,0.1 0.3,0.3 0.4,0.5 0.1,0.2 0.1,0.5 0.1,0.7 z m -3.1,11.5 v -8.8 h 2.9 v 8.8 z" id="SvgjsPath1031"></path>
		<path class="st1" d="m 146.7,133.4 c -0.2,-0.2 -0.5,-0.4 -0.8,-0.6 -0.3,-0.2 -0.7,-0.2 -1,-0.2 -0.3,0 -0.5,0.1 -0.7,0.2 -0.2,0.1 -0.3,0.3 -0.3,0.5 0,0.2 0.1,0.4 0.4,0.5 0.3,0.1 0.7,0.2 1.2,0.4 0.3,0.1 0.7,0.2 1,0.3 0.3,0.1 0.6,0.3 0.9,0.5 0.3,0.2 0.5,0.5 0.7,0.8 0.2,0.3 0.2,0.7 0.2,1.1 0,0.6 -0.1,1 -0.3,1.4 -0.2,0.4 -0.5,0.7 -0.9,0.9 -0.4,0.2 -0.8,0.4 -1.2,0.5 -0.4,0.1 -0.9,0.2 -1.3,0.2 -0.7,0 -1.4,-0.1 -2.1,-0.3 -0.7,-0.2 -1.3,-0.6 -1.7,-1 l 1.6,-1.7 c 0.3,0.3 0.6,0.5 1,0.7 0.4,0.2 0.8,0.3 1.2,0.3 0.2,0 0.5,-0.1 0.7,-0.2 0.2,-0.1 0.3,-0.3 0.3,-0.6 0,-0.3 -0.1,-0.5 -0.4,-0.6 -0.3,-0.1 -0.7,-0.3 -1.3,-0.4 -0.3,-0.1 -0.6,-0.2 -0.9,-0.3 -0.3,-0.1 -0.6,-0.3 -0.8,-0.5 -0.2,-0.2 -0.4,-0.4 -0.6,-0.7 -0.2,-0.3 -0.2,-0.6 -0.2,-1.1 0,-0.5 0.1,-1 0.3,-1.3 0.2,-0.4 0.5,-0.7 0.9,-0.9 0.4,-0.2 0.7,-0.4 1.2,-0.5 0.4,-0.1 0.9,-0.2 1.3,-0.2 0.7,0 1.3,0.1 1.9,0.3 0.6,0.2 1.2,0.5 1.6,0.9 z" id="SvgjsPath1030"></path>
		<path class="st1" d="m 152.9,128 c 0,0.2 0,0.4 -0.1,0.6 -0.1,0.2 -0.2,0.4 -0.4,0.5 -0.1,0.1 -0.3,0.3 -0.5,0.3 -0.2,0.1 -0.4,0.1 -0.6,0.1 -0.5,0 -0.9,-0.2 -1.2,-0.5 -0.3,-0.3 -0.5,-0.7 -0.5,-1.1 0,-0.2 0,-0.4 0.1,-0.6 0.1,-0.2 0.2,-0.4 0.4,-0.5 0.2,-0.1 0.3,-0.3 0.5,-0.3 0.2,-0.1 0.4,-0.1 0.7,-0.1 0.2,0 0.4,0 0.6,0.1 0.2,0.1 0.4,0.2 0.5,0.3 0.1,0.1 0.3,0.3 0.4,0.5 0.1,0.2 0.1,0.5 0.1,0.7 z m -3.1,11.5 v -8.8 h 2.9 v 8.8 z" id="SvgjsPath1029"></path>
		<path class="st1" d="m 164.2,135.1 c 0,0.7 -0.1,1.4 -0.4,1.9 -0.3,0.6 -0.6,1.1 -1.1,1.5 -0.4,0.4 -1,0.7 -1.5,0.9 -0.6,0.2 -1.2,0.3 -1.9,0.3 -0.7,0 -1.3,-0.1 -1.9,-0.3 -0.6,-0.2 -1.1,-0.5 -1.5,-0.9 -0.4,-0.4 -0.8,-0.9 -1,-1.5 -0.3,-0.6 -0.4,-1.2 -0.4,-1.9 0,-0.7 0.1,-1.4 0.4,-1.9 0.3,-0.6 0.6,-1.1 1,-1.5 0.4,-0.4 1,-0.7 1.5,-0.9 0.6,-0.2 1.2,-0.3 1.9,-0.3 0.7,0 1.3,0.1 1.9,0.3 0.6,0.2 1.1,0.5 1.5,0.9 0.4,0.4 0.8,0.9 1.1,1.5 0.3,0.6 0.4,1.2 0.4,1.9 z m -2.8,0 c 0,-0.3 0,-0.6 -0.1,-0.8 -0.1,-0.3 -0.2,-0.5 -0.4,-0.7 -0.2,-0.2 -0.4,-0.4 -0.7,-0.5 -0.3,-0.1 -0.6,-0.2 -0.9,-0.2 -0.3,0 -0.6,0.1 -0.9,0.2 -0.3,0.1 -0.5,0.3 -0.6,0.5 -0.2,0.2 -0.3,0.4 -0.4,0.7 -0.1,0.3 -0.1,0.5 -0.1,0.8 0,0.3 0,0.6 0.1,0.8 0.1,0.2 0.2,0.5 0.4,0.7 0.2,0.2 0.4,0.4 0.7,0.5 0.3,0.1 0.6,0.2 0.9,0.2 0.3,0 0.6,-0.1 0.9,-0.2 0.3,-0.1 0.5,-0.3 0.7,-0.5 0.2,-0.2 0.3,-0.5 0.4,-0.7 0,-0.2 0,-0.5 0,-0.8 z" id="SvgjsPath1028"></path>
		<path class="st1" d="m 171.7,139.5 v -4.8 c 0,-0.2 0,-0.5 -0.1,-0.7 0,-0.2 -0.1,-0.4 -0.2,-0.6 -0.1,-0.2 -0.2,-0.3 -0.4,-0.4 -0.2,-0.1 -0.4,-0.1 -0.6,-0.1 -0.3,0 -0.5,0.1 -0.7,0.1 -0.2,0.1 -0.4,0.2 -0.5,0.4 -0.1,0.2 -0.2,0.4 -0.3,0.6 -0.1,0.2 -0.1,0.5 -0.1,0.7 v 4.7 h -2.9 v -8.8 h 2.8 v 1.2 0 c 0.1,-0.2 0.2,-0.4 0.4,-0.6 0.2,-0.2 0.4,-0.3 0.6,-0.5 0.2,-0.1 0.5,-0.2 0.7,-0.3 0.3,-0.1 0.6,-0.1 0.9,-0.1 0.6,0 1.1,0.1 1.5,0.3 0.4,0.2 0.7,0.5 1,0.8 0.3,0.3 0.4,0.7 0.5,1.2 0.1,0.4 0.2,0.9 0.2,1.3 v 5.4 h -2.8 z" id="SvgjsPath1027"></path>
	</g>
</g>
</svg><style>@media (prefers-color-scheme: light) { :root { filter: none; } }
@media (prefers-color-scheme: dark) { :root { filter: none; } }
</style></svg>